<svg width="24" height="24" viewBox="0 0 24 24" fill="none" xmlns="http://www.w3.org/2000/svg">
<path fill-rule="evenodd" clip-rule="evenodd" d="M16.334 2.00024H7.665C4.26743 2.00024 2 4.43284 2 7.91624V16.0842C2 19.5709 4.26137 22.0002 7.665 22.0002H16.333C19.7376 22.0002 22 19.5709 22 16.0842V7.91624C22 4.42975 19.7378 2.00024 16.334 2.00024ZM7.665 3.50024H16.334C18.8845 3.50024 20.5 5.23521 20.5 7.91624V16.0842C20.5 18.7654 18.8844 20.5002 16.333 20.5002H7.665C5.11476 20.5002 3.5 18.7656 3.5 16.0842V7.91624C3.5 5.23862 5.12034 3.50024 7.665 3.50024ZM8.8399 9.39824C7.40375 9.39824 6.2389 10.564 6.2389 12.0002C6.2389 13.4365 7.40375 14.6022 8.8399 14.6022C10.0161 14.6022 11.0101 13.8214 11.3321 12.7502L13.4312 12.7501V13.8517L13.438 13.9535C13.4877 14.3196 13.8015 14.6017 14.1812 14.6017C14.5954 14.6017 14.9312 14.266 14.9312 13.8517V12.7501L16.2596 12.75L16.2599 13.8522L16.2667 13.954C16.3164 14.3201 16.6302 14.6022 17.0099 14.6022C17.4241 14.6022 17.7599 14.2665 17.7599 13.8522V12.0002L17.7531 11.8985C17.7034 11.5324 17.3896 11.2502 17.0099 11.2502H14.2088C14.1997 11.2499 14.1905 11.2497 14.1812 11.2497C14.1719 11.2497 14.1627 11.2499 14.1536 11.2502H11.3321C11.0101 10.1791 10.016 9.39824 8.8399 9.39824ZM8.8399 10.8982C9.44828 10.8982 9.9419 11.392 9.9419 12.0002C9.9419 12.6084 9.44828 13.1022 8.8399 13.1022C8.23243 13.1022 7.7389 12.6083 7.7389 12.0002C7.7389 11.3921 8.23243 10.8982 8.8399 10.8982Z" fill="#65656B"/>
</svg>
